<svg width="387" height="100" viewBox="0 0 387 100" fill="none" xmlns="http://www.w3.org/2000/svg">
<path d="M0.591674 98V11.4085H57.076V30.5918H23.5051V47.1108H52.2801V66.2942H23.5051V98H0.591674ZM181.681 99.5986C176.53 99.5986 172.445 98.5773 169.425 96.5346C166.495 94.4031 164.363 91.4723 163.031 87.7422C161.788 83.9233 161.166 79.5271 161.166 74.5537V5.28049H184.079V75.353C184.079 77.5733 184.479 79.1275 185.278 80.0156C186.166 80.8149 187.01 81.2146 187.809 81.2146C188.253 81.2146 188.609 81.2146 188.875 81.2146C189.23 81.1258 189.674 81.0369 190.207 80.9481L192.872 97.7336C191.717 98.2664 190.207 98.7105 188.342 99.0657C186.477 99.421 184.257 99.5986 181.681 99.5986ZM225.49 99.5986C219.007 99.5986 213.145 98.222 207.905 95.4689C202.754 92.7157 198.669 88.7636 195.649 83.6125C192.63 78.3726 191.12 72.067 191.12 64.6956C191.12 57.5018 192.63 51.3294 195.649 46.1783C198.758 40.9384 202.754 36.8975 207.639 34.0555C212.524 31.2135 217.675 29.7925 223.092 29.7925C229.664 29.7925 235.082 31.2579 239.345 34.1887C243.697 37.0307 246.894 40.894 248.936 45.7787C251.068 50.6633 252.134 56.0808 252.134 62.0312C252.134 63.9851 252.001 65.8945 251.734 67.7596C251.556 69.5358 251.379 70.8236 251.201 71.6229H209.238L208.971 56.7025H232.684C232.684 54.127 232.018 51.9067 230.686 50.0416C229.442 48.0878 227.089 47.1108 223.625 47.1108C221.671 47.1108 219.806 47.6437 218.03 48.7095C216.254 49.7752 214.788 51.5958 213.634 54.1714C212.479 56.7469 211.902 60.255 211.902 64.6956C211.902 69.4026 212.746 73.0439 214.433 75.6194C216.121 78.1062 218.252 79.838 220.828 80.8149C223.403 81.7918 226.023 82.2803 228.687 82.2803C230.997 82.2803 233.217 81.9695 235.348 81.3478C237.569 80.6373 239.878 79.616 242.276 78.2838L249.736 91.872C246.183 94.3587 242.187 96.2682 237.746 97.6003C233.306 98.9325 229.22 99.5986 225.49 99.5986ZM275.762 99.5986C271.588 99.5986 267.991 98.6661 264.972 96.801C262.041 94.8472 259.776 92.316 258.177 89.2076C256.579 86.0992 255.779 82.7244 255.779 79.0831C255.779 72.1558 258.621 66.7382 264.305 62.8305C269.989 58.834 279.226 56.1696 292.015 54.8375C291.837 53.2389 291.393 51.9511 290.683 50.9742C289.972 49.9084 288.951 49.1535 287.619 48.7095C286.286 48.1766 284.643 47.9101 282.689 47.9101C280.292 47.9101 277.76 48.3986 275.096 49.3755C272.432 50.2637 269.368 51.6402 265.904 53.5053L257.911 38.5849C261.019 36.7199 264.172 35.1213 267.369 33.7891C270.567 32.4569 273.808 31.48 277.094 30.8583C280.38 30.1478 283.755 29.7925 287.219 29.7925C292.992 29.7925 297.921 30.9027 302.006 33.123C306.18 35.2545 309.377 38.6293 311.598 43.2475C313.818 47.7769 314.928 53.6829 314.928 60.9655V98H296.278L294.679 91.6056H294.146C291.482 94.0035 288.64 95.9573 285.62 97.4671C282.689 98.8881 279.403 99.5986 275.762 99.5986ZM283.755 82.0139C285.62 82.0139 287.174 81.6142 288.418 80.8149C289.661 79.9268 290.86 78.8167 292.015 77.4845V68.4257C288.373 68.9585 285.487 69.669 283.356 70.5572C281.313 71.4453 279.847 72.4666 278.959 73.6212C278.071 74.7757 277.627 75.9747 277.627 77.218C277.627 78.7278 278.16 79.9268 279.226 80.8149C280.292 81.6142 281.801 82.0139 283.755 82.0139ZM323.605 98V31.3912H342.255L343.854 39.3842H344.387C347.051 36.8087 350.071 34.5884 353.446 32.7233C356.909 30.7695 360.906 29.7925 365.435 29.7925C372.807 29.7925 378.091 32.2793 381.288 37.2527C384.574 42.1374 386.217 48.7095 386.217 56.969V98H363.304V59.8997C363.304 55.6368 362.771 52.7948 361.705 51.3738C360.64 49.9528 358.952 49.2423 356.643 49.2423C354.512 49.2423 352.735 49.6864 351.314 50.5745C349.893 51.4626 348.295 52.706 346.518 54.3046V98H323.605Z" fill="black"/>
<path d="M81.2061 99.5986C77.0319 99.5986 73.435 98.6661 70.4154 96.801C67.4846 94.8472 65.2199 92.316 63.6213 89.2076C62.0227 86.0992 61.2234 82.7244 61.2234 79.0831C61.2234 72.1558 64.0654 66.7382 69.7493 62.8305C75.4333 58.834 84.6697 56.1696 97.4586 54.8375C97.281 53.2389 96.8369 51.9511 96.1264 50.9742C95.416 49.9084 94.3946 49.1535 93.0624 48.7095C91.7303 48.1766 90.0872 47.9101 88.1334 47.9101C85.7355 47.9101 83.2043 48.3986 80.54 49.3755C77.8756 50.2637 74.8116 51.6402 71.348 53.5053L63.3549 38.5849C66.4633 36.7199 69.6161 35.1213 72.8134 33.7891C76.0106 32.4569 79.2522 31.48 82.5382 30.8583C85.8243 30.1478 89.1991 29.7925 92.6628 29.7925C98.4356 29.7925 103.365 30.9027 107.45 33.123C111.624 35.2545 114.821 38.6293 117.042 43.2475C119.262 47.7769 120.372 53.6829 120.372 60.9655V98H101.722L100.123 91.6056H99.5901C96.9258 94.0035 94.0838 95.9573 91.0642 97.4671C88.1334 98.8881 84.8473 99.5986 81.2061 99.5986ZM89.1991 82.0139C91.0642 82.0139 92.6184 81.6142 93.8617 80.8149C95.1051 79.9268 96.3041 78.8167 97.4586 77.4845V68.4257C93.8173 68.9585 90.931 69.669 88.7995 70.5572C86.7568 71.4453 85.2914 72.4666 84.4033 73.6212C83.5152 74.7757 83.0711 75.9747 83.0711 77.218C83.0711 78.7278 83.604 79.9268 84.6697 80.8149C85.7355 81.6142 87.2453 82.0139 89.1991 82.0139ZM129.049 98V31.3912H151.962V98H129.049ZM140.506 23.1317C136.953 23.1317 134.022 22.0659 131.713 19.9344C129.404 17.7141 128.25 14.961 128.25 11.6749C128.25 8.30009 129.404 5.54692 131.713 3.41544C134.022 1.28396 136.953 0.218218 140.506 0.218218C144.147 0.218218 147.078 1.28396 149.298 3.41544C151.607 5.54692 152.762 8.30009 152.762 11.6749C152.762 14.961 151.607 17.7141 149.298 19.9344C147.078 22.0659 144.147 23.1317 140.506 23.1317Z" fill="#3B6AB2"/>
</svg>
