<svg xmlns="http://www.w3.org/2000/svg" xmlns:xlink="http://www.w3.org/1999/xlink" width="800" zoomAndPan="magnify" viewBox="0 0 600 599.999999" height="800" preserveAspectRatio="xMidYMid meet" version="1.0"><path fill="#7686aa" d="M 599.9375 299.976562 C 599.9375 465.640625 465.632812 599.945312 299.96875 599.945312 C 207.035156 599.945312 123.972656 557.683594 68.953125 491.324219 C 25.886719 439.398438 0 372.707031 0 299.976562 C 0 134.308594 134.300781 0.0078125 299.96875 0.0078125 C 358.6875 0.0078125 413.472656 16.878906 459.726562 46.042969 C 543.972656 99.15625 599.9375 193.027344 599.9375 299.976562 " fill-opacity="1" fill-rule="nonzero"/><path fill="#e0eaf6" d="M 528.671875 237.386719 C 528.671875 403.058594 394.367188 537.351562 228.695312 537.351562 C 169.984375 537.351562 115.207031 520.488281 68.953125 491.324219 C 25.886719 439.398438 0 372.707031 0 299.976562 C 0 134.308594 134.300781 0.0078125 299.96875 0.0078125 C 358.6875 0.0078125 413.472656 16.878906 459.726562 46.042969 C 502.78125 97.976562 528.671875 164.660156 528.671875 237.386719 " fill-opacity="1" fill-rule="nonzero"/><path fill="#e0eaf6" d="M 435.269531 486.03125 C 422.675781 486.03125 410.796875 481.949219 400.902344 474.226562 C 387.207031 463.546875 379.355469 447.476562 379.355469 430.117188 C 379.355469 399.285156 404.433594 374.207031 435.269531 374.207031 C 452.625 374.207031 468.703125 382.0625 479.382812 395.761719 C 487.105469 405.660156 491.179688 417.535156 491.179688 430.117188 C 491.179688 460.953125 466.101562 486.03125 435.269531 486.03125 " fill-opacity="1" fill-rule="nonzero"/><path fill="#05253c" d="M 486.5625 430.117188 C 486.5625 458.449219 463.59375 481.410156 435.269531 481.410156 C 423.378906 481.410156 412.445312 477.371094 403.746094 470.582031 C 391.714844 461.203125 383.976562 446.566406 383.976562 430.117188 C 383.976562 401.789062 406.9375 378.828125 435.269531 378.828125 C 451.71875 378.828125 466.351562 386.570312 475.738281 398.605469 C 482.523438 407.300781 486.5625 418.238281 486.5625 430.117188 " fill-opacity="1" fill-rule="nonzero"/><path fill="#7686aa" d="M 486.5625 430.117188 C 486.5625 458.449219 463.59375 481.410156 435.269531 481.410156 C 423.378906 481.410156 412.445312 477.371094 403.746094 470.582031 C 396.960938 461.890625 392.933594 450.953125 392.933594 439.074219 C 392.933594 410.742188 415.894531 387.78125 444.222656 387.78125 C 456.105469 387.78125 467.039062 391.820312 475.738281 398.605469 C 482.523438 407.300781 486.5625 418.238281 486.5625 430.117188 " fill-opacity="1" fill-rule="nonzero"/><path fill="#e0eaf6" d="M 220.375 568.867188 C 213.28125 568.867188 206.582031 566.570312 201.007812 562.210938 C 193.292969 556.199219 188.859375 547.140625 188.859375 537.351562 C 188.859375 519.980469 203.003906 505.847656 220.375 505.847656 C 230.164062 505.847656 239.222656 510.269531 245.234375 517.992188 C 249.585938 523.574219 251.890625 530.265625 251.890625 537.351562 C 251.890625 554.734375 237.753906 568.867188 220.375 568.867188 " fill-opacity="1" fill-rule="nonzero"/><path fill="#05253c" d="M 249.28125 537.351562 C 249.28125 553.328125 236.339844 566.265625 220.375 566.265625 C 213.675781 566.265625 207.511719 563.988281 202.609375 560.164062 C 195.828125 554.875 191.46875 546.625 191.46875 537.351562 C 191.46875 521.386719 204.410156 508.449219 220.375 508.449219 C 229.648438 508.449219 237.890625 512.8125 243.179688 519.59375 C 247.003906 524.496094 249.28125 530.660156 249.28125 537.351562 " fill-opacity="1" fill-rule="nonzero"/><path fill="#7686aa" d="M 249.28125 537.351562 C 249.28125 553.328125 236.339844 566.265625 220.375 566.265625 C 213.675781 566.265625 207.511719 563.988281 202.609375 560.164062 C 198.792969 555.261719 196.515625 549.097656 196.515625 542.40625 C 196.515625 526.441406 209.457031 513.492188 225.421875 513.492188 C 232.121094 513.492188 238.277344 515.769531 243.179688 519.59375 C 247.003906 524.496094 249.28125 530.660156 249.28125 537.351562 " fill-opacity="1" fill-rule="nonzero"/><path fill="#e0eaf6" d="M 503.828125 378.828125 C 499.941406 378.828125 496.269531 377.5625 493.214844 375.179688 C 488.988281 371.882812 486.5625 366.914062 486.5625 361.5625 C 486.5625 352.039062 494.304688 344.292969 503.828125 344.292969 C 509.1875 344.292969 514.148438 346.722656 517.449219 350.949219 C 519.828125 354.003906 521.09375 357.671875 521.09375 361.5625 C 521.09375 371.082031 513.347656 378.828125 503.828125 378.828125 " fill-opacity="1" fill-rule="nonzero"/><path fill="#05253c" d="M 519.664062 361.5625 C 519.664062 370.3125 512.578125 377.398438 503.828125 377.398438 C 500.160156 377.398438 496.777344 376.148438 494.09375 374.054688 C 490.378906 371.15625 487.988281 366.636719 487.988281 361.5625 C 487.988281 352.808594 495.078125 345.714844 503.828125 345.714844 C 508.910156 345.714844 513.425781 348.113281 516.320312 351.828125 C 518.414062 354.511719 519.664062 357.894531 519.664062 361.5625 " fill-opacity="1" fill-rule="nonzero"/><path fill="#7686aa" d="M 519.664062 361.5625 C 519.664062 370.3125 512.578125 377.398438 503.828125 377.398438 C 500.160156 377.398438 496.777344 376.148438 494.09375 374.054688 C 492 371.371094 490.75 367.988281 490.75 364.320312 C 490.75 355.578125 497.84375 348.484375 506.59375 348.484375 C 510.261719 348.484375 513.636719 349.730469 516.320312 351.828125 C 518.414062 354.511719 519.664062 357.894531 519.664062 361.5625 " fill-opacity="1" fill-rule="nonzero"/><path fill="#c5cdd9" d="M 136.457031 346.132812 C 121.378906 346.132812 107.136719 341.238281 95.285156 331.980469 C 78.875 319.191406 69.464844 299.929688 69.464844 279.132812 C 69.464844 242.195312 99.519531 212.132812 136.457031 212.132812 C 157.257812 212.132812 176.519531 221.554688 189.316406 237.96875 C 198.566406 249.824219 203.457031 264.058594 203.457031 279.132812 C 203.457031 316.078125 173.402344 346.132812 136.457031 346.132812 " fill-opacity="1" fill-rule="nonzero"/><path fill="#05253c" d="M 197.921875 279.132812 C 197.921875 313.082031 170.398438 340.589844 136.457031 340.589844 C 122.21875 340.589844 109.109375 335.75 98.6875 327.609375 C 84.273438 316.371094 75 298.839844 75 279.132812 C 75 245.191406 102.515625 217.675781 136.457031 217.675781 C 156.167969 217.675781 173.707031 226.957031 184.945312 241.378906 C 193.074219 251.792969 197.921875 264.898438 197.921875 279.132812 " fill-opacity="1" fill-rule="nonzero"/><path fill="#7686aa" d="M 197.921875 279.132812 C 197.921875 313.082031 170.398438 340.589844 136.457031 340.589844 C 122.21875 340.589844 109.109375 335.75 98.6875 327.609375 C 90.566406 317.203125 85.734375 304.097656 85.734375 289.863281 C 85.734375 255.921875 113.246094 228.398438 147.191406 228.398438 C 161.421875 228.398438 174.53125 233.25 184.945312 241.378906 C 193.074219 251.792969 197.921875 264.898438 197.921875 279.132812 " fill-opacity="1" fill-rule="nonzero"/><path fill="#c5cdd9" d="M 369.0625 199.714844 C 361.96875 199.714844 355.269531 197.414062 349.695312 193.058594 C 341.980469 187.046875 337.546875 177.984375 337.546875 168.207031 C 337.546875 150.828125 351.691406 136.691406 369.0625 136.691406 C 378.847656 136.691406 387.910156 141.125 393.921875 148.847656 C 398.277344 154.417969 400.578125 161.113281 400.578125 168.207031 C 400.578125 185.578125 386.441406 199.714844 369.0625 199.714844 " fill-opacity="1" fill-rule="nonzero"/><path fill="#05253c" d="M 397.96875 168.207031 C 397.96875 184.171875 385.027344 197.113281 369.0625 197.113281 C 362.363281 197.113281 356.199219 194.835938 351.296875 191.007812 C 344.519531 185.722656 340.15625 177.472656 340.15625 168.207031 C 340.15625 152.242188 353.097656 139.292969 369.0625 139.292969 C 378.335938 139.292969 386.585938 143.65625 391.871094 150.441406 C 395.691406 155.34375 397.96875 161.515625 397.96875 168.207031 " fill-opacity="1" fill-rule="nonzero"/><path fill="#7686aa" d="M 397.96875 168.207031 C 397.96875 184.171875 385.027344 197.113281 369.0625 197.113281 C 362.363281 197.113281 356.199219 194.835938 351.296875 191.007812 C 347.480469 186.109375 345.203125 179.945312 345.203125 173.25 C 345.203125 157.285156 358.140625 144.347656 374.109375 144.347656 C 380.808594 144.347656 386.972656 146.621094 391.871094 150.441406 C 395.691406 155.34375 397.96875 161.515625 397.96875 168.207031 " fill-opacity="1" fill-rule="nonzero"/><path fill="#c5cdd9" d="M 371.589844 333.636719 C 362.574219 333.636719 354.058594 330.71875 346.980469 325.183594 C 337.179688 317.542969 331.550781 306.035156 331.550781 293.609375 C 331.550781 271.523438 349.511719 253.570312 371.589844 253.570312 C 384.015625 253.570312 395.527344 259.195312 403.171875 269.003906 C 408.699219 276.09375 411.628906 284.59375 411.628906 293.609375 C 411.628906 315.683594 393.664062 333.636719 371.589844 333.636719 " fill-opacity="1" fill-rule="nonzero"/><path fill="#05253c" d="M 408.316406 293.609375 C 408.316406 313.890625 391.871094 330.332031 371.589844 330.332031 C 363.082031 330.332031 355.246094 327.4375 349.015625 322.574219 C 340.398438 315.859375 334.855469 305.382812 334.855469 293.609375 C 334.855469 273.324219 351.304688 256.875 371.589844 256.875 C 383.363281 256.875 393.847656 262.417969 400.5625 271.039062 C 405.417969 277.265625 408.316406 285.097656 408.316406 293.609375 " fill-opacity="1" fill-rule="nonzero"/><path fill="#7686aa" d="M 408.316406 293.609375 C 408.316406 313.890625 391.871094 330.332031 371.589844 330.332031 C 363.082031 330.332031 355.246094 327.4375 349.015625 322.574219 C 344.160156 316.347656 341.269531 308.523438 341.269531 300.011719 C 341.269531 279.730469 357.71875 263.289062 377.996094 263.289062 C 386.503906 263.289062 394.339844 266.183594 400.5625 271.039062 C 405.417969 277.265625 408.316406 285.097656 408.316406 293.609375 " fill-opacity="1" fill-rule="nonzero"/><path fill="#e0eaf6" d="M 509.800781 193.972656 C 504.566406 193.972656 499.628906 192.273438 495.515625 189.066406 C 489.828125 184.625 486.5625 177.941406 486.5625 170.726562 C 486.5625 157.914062 496.988281 147.484375 509.800781 147.484375 C 517.015625 147.484375 523.703125 150.75 528.140625 156.445312 C 531.355469 160.5625 533.050781 165.5 533.050781 170.726562 C 533.050781 183.542969 522.621094 193.972656 509.800781 193.972656 " fill-opacity="1" fill-rule="nonzero"/><path fill="#05253c" d="M 531.128906 170.726562 C 531.128906 182.507812 521.585938 192.054688 509.800781 192.054688 C 504.863281 192.054688 500.316406 190.375 496.703125 187.546875 C 491.695312 183.652344 488.480469 177.570312 488.480469 170.726562 C 488.480469 158.949219 498.027344 149.40625 509.800781 149.40625 C 516.644531 149.40625 522.726562 152.621094 526.628906 157.625 C 529.449219 161.242188 531.128906 165.785156 531.128906 170.726562 " fill-opacity="1" fill-rule="nonzero"/><path fill="#7686aa" d="M 531.128906 170.726562 C 531.128906 182.507812 521.585938 192.054688 509.800781 192.054688 C 504.863281 192.054688 500.316406 190.375 496.703125 187.546875 C 493.882812 183.9375 492.203125 179.386719 492.203125 174.453125 C 492.203125 162.671875 501.753906 153.125 513.53125 153.125 C 518.46875 153.125 523.015625 154.804688 526.628906 157.625 C 529.449219 161.242188 531.128906 165.785156 531.128906 170.726562 " fill-opacity="1" fill-rule="nonzero"/><path fill="#c5cdd9" d="M 247.574219 84.070312 C 242.234375 84.070312 237.203125 82.335938 233.007812 79.0625 C 227.207031 74.539062 223.878906 67.726562 223.878906 60.375 C 223.878906 47.3125 234.503906 36.6875 247.574219 36.6875 C 254.921875 36.6875 261.738281 40.015625 266.261719 45.816406 C 269.527344 50.011719 271.257812 55.042969 271.257812 60.375 C 271.257812 73.4375 260.632812 84.070312 247.574219 84.070312 " fill-opacity="1" fill-rule="nonzero"/><path fill="#05253c" d="M 269.300781 60.375 C 269.300781 72.378906 259.566406 82.109375 247.574219 82.109375 C 242.535156 82.109375 237.898438 80.394531 234.214844 77.519531 C 229.117188 73.542969 225.835938 67.339844 225.835938 60.375 C 225.835938 48.371094 235.570312 38.648438 247.574219 38.648438 C 254.539062 38.648438 260.738281 41.921875 264.71875 47.027344 C 267.589844 50.710938 269.300781 55.34375 269.300781 60.375 " fill-opacity="1" fill-rule="nonzero"/><path fill="#7686aa" d="M 269.300781 60.375 C 269.300781 72.378906 259.566406 82.109375 247.574219 82.109375 C 242.535156 82.109375 237.898438 80.394531 234.214844 77.519531 C 231.34375 73.835938 229.632812 69.199219 229.632812 64.171875 C 229.632812 52.167969 239.359375 42.4375 251.359375 42.4375 C 256.398438 42.4375 261.027344 44.152344 264.71875 47.027344 C 267.589844 50.710938 269.300781 55.34375 269.300781 60.375 " fill-opacity="1" fill-rule="nonzero"/><path fill="#c5cdd9" d="M 363.84375 59.671875 C 360.539062 59.671875 357.421875 58.605469 354.820312 56.578125 C 351.230469 53.773438 349.164062 49.550781 349.164062 44.992188 C 349.164062 36.898438 355.753906 30.3125 363.84375 30.3125 C 368.40625 30.3125 372.625 32.375 375.429688 35.976562 C 377.457031 38.570312 378.53125 41.6875 378.53125 44.992188 C 378.53125 53.089844 371.945312 59.671875 363.84375 59.671875 " fill-opacity="1" fill-rule="nonzero"/><path fill="#05253c" d="M 377.3125 44.992188 C 377.3125 52.433594 371.285156 58.460938 363.84375 58.460938 C 360.730469 58.460938 357.855469 57.402344 355.570312 55.617188 C 352.410156 53.152344 350.382812 49.308594 350.382812 44.992188 C 350.382812 37.558594 356.410156 31.523438 363.84375 31.523438 C 368.164062 31.523438 372.011719 33.5625 374.46875 36.71875 C 376.253906 39.003906 377.3125 41.875 377.3125 44.992188 " fill-opacity="1" fill-rule="nonzero"/><path fill="#7686aa" d="M 377.3125 44.992188 C 377.3125 52.433594 371.285156 58.460938 363.84375 58.460938 C 360.730469 58.460938 357.855469 57.402344 355.570312 55.617188 C 353.792969 53.332031 352.726562 50.46875 352.726562 47.34375 C 352.726562 39.910156 358.761719 33.875 366.195312 33.875 C 369.320312 33.875 372.1875 34.941406 374.46875 36.71875 C 376.253906 39.003906 377.3125 41.875 377.3125 44.992188 " fill-opacity="1" fill-rule="nonzero"/><path fill="#c5cdd9" d="M 234.066406 435.8125 C 229.398438 435.8125 225.003906 434.300781 221.335938 431.441406 C 216.269531 427.496094 213.359375 421.542969 213.359375 415.113281 C 213.359375 403.703125 222.644531 394.414062 234.066406 394.414062 C 240.492188 394.414062 246.4375 397.316406 250.394531 402.394531 C 253.253906 406.054688 254.765625 410.453125 254.765625 415.113281 C 254.765625 426.527344 245.476562 435.8125 234.066406 435.8125 " fill-opacity="1" fill-rule="nonzero"/><path fill="#05253c" d="M 253.054688 415.113281 C 253.054688 425.605469 244.554688 434.105469 234.066406 434.105469 C 229.664062 434.105469 225.609375 432.605469 222.386719 430.097656 C 217.933594 426.625 215.074219 421.203125 215.074219 415.113281 C 215.074219 404.625 223.574219 396.125 234.066406 396.125 C 240.152344 396.125 245.574219 398.988281 249.046875 403.445312 C 251.558594 406.664062 253.054688 410.710938 253.054688 415.113281 " fill-opacity="1" fill-rule="nonzero"/><path fill="#7686aa" d="M 253.054688 415.113281 C 253.054688 425.605469 244.554688 434.105469 234.066406 434.105469 C 229.664062 434.105469 225.609375 432.605469 222.386719 430.097656 C 219.875 426.875 218.386719 422.828125 218.386719 418.425781 C 218.386719 407.945312 226.886719 399.4375 237.378906 399.4375 C 241.777344 399.4375 245.824219 400.933594 249.046875 403.445312 C 251.558594 406.664062 253.054688 410.710938 253.054688 415.113281 " fill-opacity="1" fill-rule="nonzero"/><path fill="#c5cdd9" d="M 247.574219 385.445312 C 245.226562 385.445312 243.011719 384.679688 241.175781 383.242188 C 238.617188 381.261719 237.15625 378.265625 237.15625 375.039062 C 237.15625 369.296875 241.832031 364.625 247.574219 364.625 C 250.800781 364.625 253.796875 366.089844 255.777344 368.640625 C 257.214844 370.484375 257.980469 372.691406 257.980469 375.039062 C 257.980469 380.777344 253.3125 385.445312 247.574219 385.445312 " fill-opacity="1" fill-rule="nonzero"/><path fill="#05253c" d="M 257.117188 375.039062 C 257.117188 380.308594 252.84375 384.582031 247.574219 384.582031 C 245.355469 384.582031 243.320312 383.832031 241.703125 382.570312 C 239.464844 380.824219 238.019531 378.101562 238.019531 375.039062 C 238.019531 369.757812 242.292969 365.484375 247.574219 365.484375 C 250.628906 365.484375 253.359375 366.929688 255.105469 369.167969 C 256.359375 370.789062 257.117188 372.820312 257.117188 375.039062 " fill-opacity="1" fill-rule="nonzero"/><path fill="#7686aa" d="M 257.117188 375.039062 C 257.117188 380.308594 252.84375 384.582031 247.574219 384.582031 C 245.355469 384.582031 243.320312 383.832031 241.703125 382.570312 C 240.441406 380.953125 239.691406 378.917969 239.691406 376.703125 C 239.691406 371.429688 243.964844 367.15625 249.234375 367.15625 C 251.445312 367.15625 253.488281 367.90625 255.105469 369.167969 C 256.359375 370.789062 257.117188 372.820312 257.117188 375.039062 " fill-opacity="1" fill-rule="nonzero"/><path fill="#c5cdd9" d="M 167.066406 174.105469 C 163.296875 174.105469 159.738281 172.875 156.773438 170.566406 C 152.664062 167.367188 150.3125 162.550781 150.3125 157.355469 C 150.3125 148.121094 157.832031 140.601562 167.066406 140.601562 C 172.269531 140.601562 177.085938 142.953125 180.277344 147.0625 C 182.589844 150.027344 183.816406 153.582031 183.816406 157.355469 C 183.816406 166.589844 176.300781 174.105469 167.066406 174.105469 " fill-opacity="1" fill-rule="nonzero"/><path fill="#05253c" d="M 182.433594 157.355469 C 182.433594 165.839844 175.550781 172.722656 167.066406 172.722656 C 163.503906 172.722656 160.226562 171.503906 157.617188 169.46875 C 154.019531 166.664062 151.695312 162.277344 151.695312 157.355469 C 151.695312 148.867188 158.578125 141.988281 167.066406 141.988281 C 171.996094 141.988281 176.375 144.308594 179.1875 147.914062 C 181.222656 150.515625 182.433594 153.792969 182.433594 157.355469 " fill-opacity="1" fill-rule="nonzero"/><path fill="#7686aa" d="M 182.433594 157.355469 C 182.433594 165.839844 175.550781 172.722656 167.066406 172.722656 C 163.503906 172.722656 160.226562 171.503906 157.617188 169.46875 C 155.59375 166.867188 154.382812 163.59375 154.382812 160.03125 C 154.382812 151.546875 161.265625 144.671875 169.75 144.671875 C 173.304688 144.671875 176.585938 145.882812 179.1875 147.914062 C 181.222656 150.515625 182.433594 153.792969 182.433594 157.355469 " fill-opacity="1" fill-rule="nonzero"/><path fill="#c5cdd9" d="M 60.707031 196.832031 C 58.734375 196.832031 56.875 196.199219 55.324219 194.988281 C 53.175781 193.316406 51.949219 190.796875 51.949219 188.074219 C 51.949219 183.25 55.875 179.316406 60.707031 179.316406 C 63.421875 179.316406 65.941406 180.550781 67.613281 182.699219 C 68.824219 184.246094 69.464844 186.109375 69.464844 188.074219 C 69.464844 192.90625 65.53125 196.832031 60.707031 196.832031 " fill-opacity="1" fill-rule="nonzero"/><path fill="#05253c" d="M 68.738281 188.074219 C 68.738281 192.515625 65.140625 196.113281 60.707031 196.113281 C 58.847656 196.113281 57.128906 195.480469 55.769531 194.414062 C 53.886719 192.945312 52.667969 190.652344 52.667969 188.074219 C 52.667969 183.644531 56.269531 180.042969 60.707031 180.042969 C 63.277344 180.042969 65.570312 181.253906 67.046875 183.144531 C 68.105469 184.503906 68.738281 186.214844 68.738281 188.074219 " fill-opacity="1" fill-rule="nonzero"/><path fill="#7686aa" d="M 68.738281 188.074219 C 68.738281 192.515625 65.140625 196.113281 60.707031 196.113281 C 58.847656 196.113281 57.128906 195.480469 55.769531 194.414062 C 54.703125 193.058594 54.074219 191.34375 54.074219 189.480469 C 54.074219 185.042969 57.667969 181.449219 62.105469 181.449219 C 63.96875 181.449219 65.683594 182.078125 67.046875 183.144531 C 68.105469 184.503906 68.738281 186.214844 68.738281 188.074219 " fill-opacity="1" fill-rule="nonzero"/><path fill="#c5cdd9" d="M 107.671875 471.238281 C 101.546875 471.238281 95.753906 469.25 90.9375 465.492188 C 84.265625 460.285156 80.4375 452.460938 80.4375 444.003906 C 80.4375 428.992188 92.660156 416.769531 107.671875 416.769531 C 116.128906 416.769531 123.964844 420.597656 129.160156 427.273438 C 132.917969 432.09375 134.90625 437.878906 134.90625 444.003906 C 134.90625 459.023438 122.691406 471.238281 107.671875 471.238281 " fill-opacity="1" fill-rule="nonzero"/><path fill="#05253c" d="M 132.660156 444.003906 C 132.660156 457.804688 121.46875 468.984375 107.671875 468.984375 C 101.886719 468.984375 96.554688 467.019531 92.320312 463.714844 C 86.460938 459.144531 82.691406 452.011719 82.691406 444.003906 C 82.691406 430.210938 93.878906 419.023438 107.671875 419.023438 C 115.691406 419.023438 122.8125 422.796875 127.382812 428.660156 C 130.6875 432.894531 132.660156 438.21875 132.660156 444.003906 " fill-opacity="1" fill-rule="nonzero"/><path fill="#7686aa" d="M 132.660156 444.003906 C 132.660156 457.804688 121.46875 468.984375 107.671875 468.984375 C 101.886719 468.984375 96.554688 467.019531 92.320312 463.714844 C 89.015625 459.476562 87.058594 454.152344 87.058594 448.367188 C 87.058594 434.574219 98.242188 423.378906 112.039062 423.378906 C 117.824219 423.378906 123.148438 425.355469 127.382812 428.660156 C 130.6875 432.894531 132.660156 438.21875 132.660156 444.003906 " fill-opacity="1" fill-rule="nonzero"/></svg>