<svg xmlns="http://www.w3.org/2000/svg" xmlns:xlink="http://www.w3.org/1999/xlink" width="800" zoomAndPan="magnify" viewBox="0 0 600 599.999999" height="800" preserveAspectRatio="xMidYMid meet" version="1.0"><defs><clipPath id="aac826e355"><path d="M 19.636719 323 L 269 323 L 269 600 L 19.636719 600 Z M 19.636719 323 " clip-rule="nonzero"/></clipPath></defs><path fill="#e25152" d="M 321.367188 136.375 C 323.910156 134.023438 233.5 143.746094 187.378906 201.242188 C 141.261719 258.738281 130.132812 318.167969 130.132812 318.167969 C 130.132812 318.167969 183.820312 279.722656 227.46875 297.996094 C 227.539062 297.996094 274.953125 179.707031 321.367188 136.375 Z M 321.367188 136.375 " fill-opacity="1" fill-rule="nonzero"/><path fill="#e25152" d="M 445.109375 247.21875 C 445.109375 247.21875 475.9375 372.175781 289.3125 457.617188 C 289.3125 457.617188 321.59375 382.917969 294.808594 359.171875 C 294.808594 359.171875 369.320312 313.003906 397.003906 289.449219 C 424.683594 265.890625 445.109375 247.21875 445.109375 247.21875 Z M 445.109375 247.21875 " fill-opacity="1" fill-rule="nonzero"/><path fill="#dcdcdc" d="M 272.035156 372.367188 C 272.035156 372.367188 579.617188 234.820312 539.386719 5.179688 C 539.386719 5.179688 331.855469 0 213.042969 320.105469 Z M 272.035156 372.367188 " fill-opacity="1" fill-rule="nonzero"/><path fill="#6c364a" d="M 296.210938 360.464844 L 222.40625 295.890625 C 222.40625 295.890625 208.03125 316.613281 213.765625 321.417969 C 217.722656 324.765625 272.777344 373.679688 272.777344 373.679688 Z M 296.210938 360.464844 " fill-opacity="1" fill-rule="nonzero"/><path fill="#e25152" d="M 538.300781 93.058594 C 538.300781 93.058594 549.996094 43.679688 539.542969 2.539062 C 539.542969 2.539062 499.628906 7.03125 461.351562 22.796875 Z M 538.300781 93.058594 " fill-opacity="1" fill-rule="nonzero"/><g clip-path="url(#aac826e355)"><path fill="#f26522" d="M 268.835938 369.722656 C 268.835938 369.722656 155.480469 554.921875 19.972656 600.015625 C 19.972656 600.015625 74.664062 414.042969 216.429688 323.316406 Z M 268.835938 369.722656 " fill-opacity="1" fill-rule="nonzero"/></g><path fill="#fcb22c" d="M 261.460938 363.195312 C 261.460938 363.195312 229.300781 419.015625 104.9375 504.179688 C 104.9375 504.179688 151.179688 388.308594 224.167969 330.191406 Z M 261.460938 363.195312 " fill-opacity="1" fill-rule="nonzero"/><path fill="#feeb81" d="M 257.433594 359.84375 C 257.433594 359.84375 225.414062 392.433594 205.074219 391.277344 C 205.074219 391.277344 203.019531 357.773438 228.125 333.625 Z M 257.433594 359.84375 " fill-opacity="1" fill-rule="nonzero"/><path fill="#6c364a" d="M 379.359375 140.949219 C 379.359375 142.554688 379.4375 144.15625 379.59375 145.75 C 379.753906 147.347656 379.988281 148.933594 380.300781 150.503906 C 380.613281 152.078125 381.003906 153.632812 381.46875 155.167969 C 381.9375 156.703125 382.476562 158.210938 383.089844 159.695312 C 383.703125 161.175781 384.390625 162.625 385.144531 164.039062 C 385.902344 165.453125 386.726562 166.828125 387.617188 168.164062 C 388.511719 169.496094 389.464844 170.78125 390.484375 172.023438 C 391.5 173.261719 392.578125 174.449219 393.714844 175.585938 C 394.847656 176.71875 396.035156 177.796875 397.277344 178.8125 C 398.515625 179.832031 399.804688 180.785156 401.140625 181.675781 C 402.472656 182.566406 403.847656 183.390625 405.265625 184.148438 C 406.679688 184.902344 408.128906 185.589844 409.613281 186.203125 C 411.09375 186.816406 412.605469 187.355469 414.140625 187.820312 C 415.675781 188.289062 417.230469 188.675781 418.804688 188.988281 C 420.378906 189.300781 421.964844 189.539062 423.5625 189.695312 C 425.160156 189.851562 426.761719 189.929688 428.363281 189.929688 C 429.96875 189.929688 431.570312 189.851562 433.167969 189.695312 C 434.765625 189.539062 436.351562 189.300781 437.925781 188.988281 C 439.5 188.675781 441.054688 188.289062 442.589844 187.820312 C 444.125 187.355469 445.636719 186.816406 447.117188 186.203125 C 448.601562 185.589844 450.050781 184.902344 451.464844 184.148438 C 452.882812 183.390625 454.257812 182.566406 455.589844 181.675781 C 456.925781 180.785156 458.214844 179.832031 459.453125 178.8125 C 460.695312 177.796875 461.882812 176.71875 463.015625 175.585938 C 464.152344 174.449219 465.230469 173.261719 466.246094 172.023438 C 467.265625 170.78125 468.21875 169.496094 469.113281 168.164062 C 470.003906 166.828125 470.828125 165.453125 471.585938 164.039062 C 472.339844 162.625 473.027344 161.175781 473.640625 159.695312 C 474.253906 158.210938 474.792969 156.703125 475.261719 155.167969 C 475.726562 153.632812 476.117188 152.078125 476.429688 150.503906 C 476.742188 148.933594 476.976562 147.347656 477.132812 145.75 C 477.292969 144.15625 477.371094 142.554688 477.371094 140.949219 C 477.371094 139.347656 477.292969 137.746094 477.132812 136.148438 C 476.976562 134.550781 476.742188 132.96875 476.429688 131.394531 C 476.117188 129.820312 475.726562 128.265625 475.261719 126.730469 C 474.792969 125.195312 474.253906 123.6875 473.640625 122.207031 C 473.027344 120.722656 472.339844 119.273438 471.585938 117.859375 C 470.828125 116.445312 470.003906 115.070312 469.113281 113.738281 C 468.21875 112.402344 467.265625 111.117188 466.246094 109.875 C 465.230469 108.636719 464.152344 107.449219 463.015625 106.316406 C 461.882812 105.179688 460.695312 104.105469 459.453125 103.085938 C 458.214844 102.070312 456.925781 101.113281 455.589844 100.222656 C 454.257812 99.332031 452.882812 98.507812 451.464844 97.753906 C 450.050781 96.996094 448.601562 96.3125 447.117188 95.699219 C 445.636719 95.082031 444.125 94.542969 442.589844 94.078125 C 441.054688 93.613281 439.5 93.222656 437.925781 92.910156 C 436.351562 92.597656 434.765625 92.363281 433.167969 92.203125 C 431.570312 92.046875 429.96875 91.96875 428.363281 91.96875 C 426.761719 91.96875 425.160156 92.046875 423.5625 92.203125 C 421.964844 92.363281 420.378906 92.597656 418.804688 92.910156 C 417.230469 93.222656 415.675781 93.613281 414.140625 94.078125 C 412.605469 94.542969 411.09375 95.082031 409.613281 95.699219 C 408.128906 96.3125 406.679688 96.996094 405.265625 97.753906 C 403.847656 98.507812 402.472656 99.332031 401.140625 100.222656 C 399.804688 101.113281 398.515625 102.070312 397.277344 103.085938 C 396.035156 104.105469 394.847656 105.179688 393.714844 106.316406 C 392.578125 107.449219 391.5 108.636719 390.484375 109.875 C 389.464844 111.117188 388.511719 112.402344 387.617188 113.738281 C 386.726562 115.070312 385.902344 116.445312 385.144531 117.859375 C 384.390625 119.273438 383.703125 120.722656 383.089844 122.207031 C 382.476562 123.6875 381.9375 125.195312 381.46875 126.730469 C 381.003906 128.265625 380.613281 129.820312 380.300781 131.394531 C 379.988281 132.96875 379.753906 134.550781 379.59375 136.148438 C 379.4375 137.746094 379.359375 139.347656 379.359375 140.949219 Z M 379.359375 140.949219 " fill-opacity="1" fill-rule="nonzero"/><path fill="#7fd0db" d="M 399.550781 115.371094 C 398.773438 116.25 398.039062 117.167969 397.351562 118.125 C 396.664062 119.082031 396.027344 120.070312 395.441406 121.089844 C 394.855469 122.113281 394.324219 123.164062 393.84375 124.242188 C 393.363281 125.320312 392.9375 126.421875 392.570312 127.546875 C 392.199219 128.671875 391.886719 129.8125 391.632812 130.972656 C 391.375 132.132812 391.179688 133.304688 391.042969 134.488281 C 390.902344 135.671875 390.824219 136.863281 390.804688 138.058594 C 390.78125 139.253906 390.820312 140.453125 390.917969 141.648438 C 391.015625 142.847656 391.171875 144.039062 391.386719 145.226562 C 391.601562 146.414062 391.875 147.59375 392.207031 148.757812 C 392.535156 149.921875 392.921875 151.070312 393.363281 152.203125 C 393.808594 153.335938 394.304688 154.449219 394.855469 155.535156 C 395.402344 156.625 396.003906 157.6875 396.65625 158.71875 C 397.308594 159.753906 398.011719 160.757812 398.757812 161.726562 C 399.507812 162.695312 400.300781 163.628906 401.140625 164.527344 C 401.976562 165.421875 402.855469 166.277344 403.773438 167.089844 C 404.691406 167.902344 405.648438 168.671875 406.636719 169.394531 C 407.628906 170.121094 408.652344 170.796875 409.703125 171.421875 C 410.757812 172.046875 411.835938 172.621094 412.941406 173.144531 C 414.046875 173.667969 415.175781 174.136719 416.320312 174.554688 C 417.46875 174.96875 418.632812 175.328125 419.808594 175.628906 C 420.988281 175.933594 422.175781 176.179688 423.371094 176.367188 C 424.570312 176.554688 425.769531 176.683594 426.976562 176.753906 C 428.183594 176.824219 429.386719 176.835938 430.585938 176.789062 C 431.789062 176.742188 432.980469 176.636719 434.167969 176.472656 C 435.355469 176.308594 436.527344 176.085938 437.6875 175.808594 C 438.84375 175.527344 439.984375 175.191406 441.105469 174.800781 C 442.226562 174.40625 443.324219 173.960938 444.398438 173.457031 C 445.46875 172.957031 446.511719 172.402344 447.527344 171.796875 C 448.539062 171.191406 449.519531 170.535156 450.464844 169.832031 C 451.40625 169.125 452.3125 168.375 453.179688 167.578125 C 454.046875 166.785156 454.871094 165.945312 455.652344 165.066406 C 456.429688 164.183594 457.164062 163.269531 457.851562 162.3125 C 458.539062 161.355469 459.175781 160.367188 459.761719 159.34375 C 460.347656 158.324219 460.878906 157.273438 461.359375 156.195312 C 461.839844 155.117188 462.265625 154.015625 462.632812 152.890625 C 463.003906 151.765625 463.316406 150.625 463.570312 149.464844 C 463.828125 148.304688 464.023438 147.132812 464.160156 145.949219 C 464.300781 144.765625 464.378906 143.574219 464.398438 142.378906 C 464.421875 141.183594 464.382812 139.984375 464.285156 138.785156 C 464.1875 137.589844 464.03125 136.398438 463.816406 135.210938 C 463.601562 134.023438 463.328125 132.84375 462.996094 131.679688 C 462.667969 130.515625 462.28125 129.363281 461.839844 128.234375 C 461.394531 127.101562 460.898438 125.988281 460.351562 124.902344 C 459.800781 123.8125 459.199219 122.75 458.546875 121.714844 C 457.894531 120.683594 457.191406 119.679688 456.445312 118.710938 C 455.695312 117.742188 454.902344 116.808594 454.0625 115.910156 C 453.226562 115.015625 452.347656 114.160156 451.429688 113.347656 C 450.511719 112.53125 449.554688 111.765625 448.566406 111.039062 C 447.574219 110.316406 446.554688 109.640625 445.5 109.015625 C 444.445312 108.390625 443.367188 107.816406 442.261719 107.292969 C 441.15625 106.769531 440.027344 106.296875 438.882812 105.882812 C 437.734375 105.46875 436.570312 105.109375 435.394531 104.808594 C 434.214844 104.503906 433.027344 104.257812 431.832031 104.070312 C 430.632812 103.882812 429.433594 103.753906 428.226562 103.683594 C 427.023438 103.613281 425.816406 103.601562 424.617188 103.648438 C 423.414062 103.695312 422.222656 103.800781 421.035156 103.964844 C 419.847656 104.128906 418.675781 104.351562 417.519531 104.628906 C 416.359375 104.910156 415.21875 105.246094 414.097656 105.636719 C 412.976562 106.03125 411.878906 106.476562 410.804688 106.980469 C 409.734375 107.480469 408.691406 108.035156 407.675781 108.640625 C 406.664062 109.246094 405.683594 109.902344 404.738281 110.605469 C 403.796875 111.3125 402.890625 112.0625 402.023438 112.855469 C 401.15625 113.652344 400.332031 114.492188 399.550781 115.371094 Z M 399.550781 115.371094 " fill-opacity="1" fill-rule="nonzero"/></svg>