<svg width="256" height="256" viewBox="0 0 256 256" fill="none" xmlns="http://www.w3.org/2000/svg">
<rect width="256" height="256" fill="#3B6AB2"/>
<mask id="mask0_222_6118" style="mask-type:luminance" maskUnits="userSpaceOnUse" x="111" y="27" width="117" height="60">
<path d="M111.736 27.4678H227.383V86.9468H111.736V27.4678Z" fill="white"/>
</mask>
<g mask="url(#mask0_222_6118)">
<path d="M187.541 86.9468V74.2185H111.799V40.1961H187.541V27.4678L227.323 57.2045L187.541 86.9468Z" fill="white"/>
</g>
<mask id="mask1_222_6118" style="mask-type:luminance" maskUnits="userSpaceOnUse" x="27" y="79" width="158" height="152">
<path d="M27.9668 79.0532H184.292V230.683H27.9668V79.0532Z" fill="white"/>
</mask>
<g mask="url(#mask1_222_6118)">
<path d="M52.981 108.549L28.5664 230.683H41.614C57.8885 230.683 74.051 217.927 78.7177 201.826L79.2667 199.35L88.572 152.728H176.645L183.911 117.787H95.2947L102.774 80.3697H92.4992C73.6028 80.3697 62.8017 94.3753 52.981 108.549Z" fill="white"/>
</g>
<mask id="mask2_222_6118" style="mask-type:luminance" maskUnits="userSpaceOnUse" x="49" y="25" width="141" height="80">
<path d="M49.4785 25.8151H189.876V104.868H49.4785V25.8151Z" fill="white"/>
</mask>
<g mask="url(#mask2_222_6118)">
<mask id="mask3_222_6118" style="mask-type:luminance" maskUnits="userSpaceOnUse" x="49" y="25" width="223" height="80">
<path fill-rule="evenodd" clip-rule="evenodd" d="M228.533 74.8739L225.395 87.2493L248.549 71.944L271.888 56.4314L256.779 41.1204L241.675 25.8151L239.519 34.2633L238.14 39.5518H97.597C81.3225 39.5518 64.6671 52.3081 59.3617 68.409L57.7931 74.493L49.7539 104.314C57.02 87.4398 75.0536 74.493 92.499 74.493H228.74L228.533 74.8739Z" fill="white"/>
</mask>
<g mask="url(#mask3_222_6118)">
<path d="M49.7539 25.8151V104.314H189.877V25.8151H49.7539Z" fill="white"/>
</g>
</g>
</svg>
